# AST/ASF file generated using VICON BodyLanguage
# -----------------------------------------------
:version 1.10
:name VICON
:units
  mass 1.0
  length 0.45
  angle deg
:documentation
   .ast/.asf automatically generated from VICON data using
   VICON BodyBuilder and BodyLanguage model FoxedUp or BRILLIANT.MOD
:root
   order TX TY TZ RX RY RZ
   axis XYZ
   position 0 0 0  
   orientation 0 0 0 
:bonedata
  begin
     id 1 
     name lhipjoint
     direction 0.521689 -0.742065 0.420928 
     length 2.47002 
     axis 0 0 0  XYZ
  end
  begin
     id 2 
     name lfemur
     direction 0.34202 -0.939693 0  
     length 7.24654  
     axis 0 0 20  XYZ
    dof rx ry rz
    limits (-160.0 20.0)
           (-70.0 70.0)
           (-60.0 70.0)
  end
  begin
     id 3 
     name ltibia
     direction 0.34202 -0.939693 0   
     length 8.04849   
     axis 0 0 20   XYZ
    dof rx
    limits (-10.0 170.0)
  end
  begin
     id 4 
     name lfoot
     direction 0.0745411 -0.2048 0.975961   
     length 1.72367   
     axis -90 7.62852e-016 20   XYZ
    dof rx rz
    limits (-45.0 90.0)
           (-70.0 20.0)
  end
  begin
     id 5 
     name ltoes
     direction 1.53556e-011 -4.21901e-011 1   
     length 0.87311   
     axis -90 7.62852e-016 20   XYZ
    dof rx
    limits (-90.0 20.0)
  end
  begin
     id 6 
     name rhipjoint
     direction -0.52849 -0.738415 0.418857   
     length 2.48223  
     axis 0 0 0  XYZ 
  end
  begin
     id 7 
     name rfemur
     direction -0.34202 -0.939693 0   
     length 7.15571   
     axis 0 0 -20   XYZ
    dof rx ry rz
    limits (-160.0 20.0)
           (-70.0 70.0)
           (-70.0 60.0)
  end
  begin
     id 8 
     name rtibia
     direction -0.34202 -0.939693 0   
     length 7.81659   
     axis 0 0 -20   XYZ
    dof rx
    limits (-10.0 170.0)
 end
 begin
     id 9 
     name rfoot
     direction -0.0917348 -0.252039 0.963359   
     length 1.84382  
     axis -90 -7.62852e-016 -20   XYZ
    dof rx rz
    limits (-45.0 90.0)
           (-20.0 70.0)
  end
  begin
     id 10 
     name rtoes
     direction -1.53551e-011 -4.21879e-011 1   
     length 0.927771   
     axis -90 -7.62852e-016 -20   XYZ
    dof rx
    limits (-90.0 20.0)
  end
  begin
     id 11 
     name lowerback
     direction 0.00583058 0.999822 0.0179296   
     length 2.1429   
     axis 0 0 0   XYZ
    dof rx ry rz
    limits (-20.0 45.0)
           (-30.0 30.0)
           (-30.0 30.0)
  end
  begin
     id 12 
     name upperback
     direction -0.0137999 0.999752 -0.0175071   
     length 2.14252   
     axis 0 0 0   XYZ
    dof rx ry rz
    limits (-20.0 45.0)
           (-30.0 30.0)
           (-30.0 30.0)
  end
  begin
     id 13 
     name thorax
     direction -0.0158036 0.99955 -0.0254909   
     length 2.1383   
     axis 0 0 0   XYZ
    dof rx ry rz
    limits (-20.0 45.0)
           (-30.0 30.0)
           (-30.0 30.0)
  end
  begin
     id 14 
     name lowerneck
     direction -0.0101179 0.999403 -0.0330262   
     length 1.65808   
     axis 0 0 0   XYZ
    dof rx ry rz
    limits (-20.0 45.0)
           (-30.0 30.0)
           (-30.0 30.0)
  end
  begin
     id 15 
     name upperneck
     direction 0.0497734 0.995978 -0.074501   
     length 1.5897   
     axis 0 0 0   XYZ
    dof rx ry rz
    limits (-20.0 45.0)
           (-30.0 30.0)
           (-30.0 30.0)
  end
  begin
     id 16
     name head
     direction 0.0189524 0.999519 -0.0245438  
     length 1.74024  
     axis 0 0 0   XYZ
    dof rx ry rz
    limits (-20.0 45.0)
           (-30.0 30.0)
           (-30.0 30.0)
  end
  begin
     id 17 
     name lclavicle
     direction 0.945604 0.324422 0.0241537  
     length 3.59089  
     axis 0 0 0   XYZ
    dof ry rz
    limits (-20.0 10.0)
           (0.0 20.0)
  end
  begin
     id 18 
     name lhumerus
     direction 1 -4.48964e-011 -2.63524e-027   
     length 5.2391   
     axis 180 -30 -90   XYZ
    dof rx ry rz
    limits (-60.0 90.0)
           (-90.0 90.0)
           (-90.0 90.0)
  end
  begin
     id 19
     name lradius
     direction 1 -4.48969e-011 3.86978e-028   
     length 3.31467   
     axis 180 -30 -90   XYZ
    dof rx
    limits (-10.0 170.0)
  end
  begin
     id 20
     name lwrist
     direction 1 -4.48963e-011 7.20928e-028   
     length 1.65734   
     axis -5.52449e-016 90 90   XYZ
    dof ry
    limits (-180.0 0.0)
 end
  begin
     id 21 
     name lhand
     direction 1 -4.48964e-011 1.44186e-027   
     length 0.9659   
     axis -9.20027e-016 90 90   XYZ
    dof rx rz
    limits (-90.0 90.0)
           (-45.0 45.0)
  end
  begin
     id 22 
     name lfingers
     direction 1 -4.48965e-011 2.88371e-027   
     length 0.778733   
     axis -1.84005e-015 90 90   XYZ
    dof rx
    limits (0.0 90.0)
  end
  begin
     id 23
     name lthumb
     direction 0.707107 -6.34931e-011 0.707107   
     length 1.11811   
     axis -90 45 2.85299e-015   XYZ
    dof rx rz
    limits (-45.0 45.0)
           (-45.0 45.0)
  end
  begin
     id 24 
     name rclavicle
     direction -0.923762 0.370785 0.0958234   
     length 3.54196  
     axis 0 0 0   XYZ 
    dof ry rz
    limits (-10.0 20.0)
           (-20.0 0.0)
  end
  begin
     id 25 
     name rhumerus
     direction -1 -4.48966e-011 1.18702e-017  
     length 5.30252   
     axis 180 30 90   XYZ
    dof rx ry rz
    limits (-90.0 60.0)
           (-90.0 90.0)
           (-90.0 90.0)
  end
  begin
     id 26 
     name rradius
     direction -1 -4.48966e-011 4.46736e-027   
     length 3.67875   
     axis 180 30 90   XYZ
    dof rx
    limits (-10.0 170.0)
  end
  begin
     id 27 
     name rwrist
     direction -1 -4.48966e-011 7.20928e-028   
     length 1.83937   
     axis -5.52449e-016 -90 -90   XYZ
    dof ry
    limits (-180.0 0.0)
  end
  begin
     id 28
     name rhand
     direction -1 -4.48973e-011 1.44186e-027   
     length 0.594811   
     axis -9.20027e-016 -90 -90   XYZ
    dof rx rz
    limits (-90.0 90.0)
           (-45.0 45.0)
  end
  begin
     id 29
     name rfingers
     direction -1 -4.48963e-011 2.88371e-027   
     length 0.479552   
     axis -1.84005e-015 -90 -90   XYZ
    dof rx
    limits (0.0 90.0)
  end
  begin
     id 30
     name rthumb
     direction -0.707107 -6.34932e-011 0.707107   
     length 0.688544   
     axis -90 -45 -2.85299e-015   XYZ
    dof rx rz
    limits (-45.0 45.0)
           (-45.0 45.0)
  end
:hierarchy
  begin
    root lhipjoint rhipjoint lowerback
    lhipjoint lfemur
    lfemur ltibia
    ltibia lfoot
    lfoot ltoes
    rhipjoint rfemur
    rfemur rtibia
    rtibia rfoot
    rfoot rtoes
    lowerback upperback
    upperback thorax
    thorax lowerneck lclavicle rclavicle
    lowerneck upperneck
    upperneck head
    lclavicle lhumerus
    lhumerus lradius
    lradius lwrist
    lwrist lhand lthumb
    lhand lfingers
    rclavicle rhumerus
    rhumerus rradius
    rradius rwrist
    rwrist rhand rthumb
    rhand rfingers
  end

#!OML:ASF E:\acrobat2\Project_11_07_03\Capture day 1\Session 1\Acrobat.ASF
:FULLY-SPECIFIED
:DEGREES
326
root 9.15053 11.8031 12.4418 -40.6191 -2.14573 -177.733
lowerback 33.1738 0.121577 -1.49551
upperback 19.0715 0.787857 -2.11465
thorax 3.91075 -0.287943 -1.67753
lowerneck -2.63504 -1.19824 -2.56939
upperneck 24.5046 -1.2299 -0.664749
head 8.00046 -0.460177 0.183201
rclavicle -1.78906e-015 -1.27222e-014
rhumerus 62.6414 -15.1615 -83.2428
rradius 112.735
rwrist 13.4962
rhand -44.0498 -85.5724
rfingers 7.12502
rthumb -16.8691 -245.14
lclavicle -1.78906e-015 -1.27222e-014
lhumerus 66.4009 13.327 70.3218
lradius 109.871
lwrist -9.05325
lhand -58.8117 -61.9652
lfingers 7.12502
lthumb -31.0199 -34.5675
rfemur -52.1789 1.64925 -39.6919
rtibia -0.945404
rfoot -47.0413 -32.755
rtoes 34.1363
lfemur -46.9636 14.6028 28.9308
ltibia 0.533988
lfoot -31.2168 -0.0518236
ltoes 52.2204
327
root 9.14734 11.6438 12.1323 -39.041 -2.12349 -177.733
lowerback 33.3153 0.16505 -1.43542
upperback 19.3044 0.779163 -2.13648
thorax 4.11915 -0.358577 -1.73925
lowerneck -2.966 -1.2402 -3.12993
upperneck 24.8606 -1.39606 0.309307
head 8.19421 -0.479277 0.592511
rclavicle -2.72335e-014 -2.74323e-014
rhumerus 63.1865 -15.2538 -83.6836
rradius 113.493
rwrist 13.5733
rhand -44.14 -85.5255
rfingers 7.12502
rthumb -16.956 -245.195
lclavicle -2.72335e-014 -2.74323e-014
lhumerus 66.7761 13.3576 70.525
lradius 110.327
lwrist -9.42064
lhand -58.9255 -63.6645
lfingers 7.12502
lthumb -31.1284 -36.2876
rfemur -51.9273 1.9479 -40.4813
rtibia -0.980672
rfoot -48.6609 -32.2768
rtoes 36.3025
lfemur -46.2328 13.8361 29.8972
ltibia -0.0719477
lfoot -31.8847 0.790002
ltoes 52.0742
328
root 9.14222 11.4926 11.8326 -37.0313 -2.15032 -177.704
lowerback 32.9195 0.202009 -1.41084
upperback 19.4785 0.751708 -2.15266
thorax 4.45423 -0.425863 -1.76743
lowerneck -3.31908 -1.04555 -2.80631
upperneck 25.8998 -1.08811 0.219369
head 8.60664 -0.262189 0.541227
rclavicle -9.34288e-015 -2.26615e-014
rhumerus 63.6043 -15.3277 -84.1809
rradius 114.224
rwrist 13.7568
rhand -44.1772 -85.3764
rfingers 7.12502
rthumb -16.9917 -245.347
lclavicle -9.34288e-015 -2.26615e-014
lhumerus 67.0614 13.5692 70.6184
lradius 110.835
lwrist -9.67241
lhand -59.1544 -65.4549
lfingers 7.12502
lthumb -31.3465 -38.1201
rfemur -51.7914 1.75155 -41.3241
rtibia -1.46134
rfoot -49.4387 -32.9207
rtoes 37.1579
lfemur -45.9153 13.5337 30.8601
ltibia -0.505687
lfoot -32.5856 0.844985
ltoes 52.2727
329
root 9.13584 11.3367 11.5286 -35.1508 -2.09031 -177.702
lowerback 32.8871 0.189169 -1.35373
upperback 19.4903 0.633055 -2.20224
thorax 4.47576 -0.527913 -1.82388
lowerneck -3.18904 -1.35299 -0.84507
upperneck 25.7663 -0.579204 -4.72818
head 8.50127 -0.300446 -1.42255
rclavicle -1.43125e-014 -1.31198e-014
rhumerus 63.6282 -14.9032 -84.553
rradius 115.043
rwrist 14.3719
rhand -44.0074 -85.5494
rfingers 7.12502
rthumb -16.8283 -245.16
lclavicle -1.43125e-014 -1.31198e-014
lhumerus 67.0442 14.0274 70.593
lradius 111.54
lwrist -9.58954
lhand -59.2973 -67.0481
lfingers 7.12502
lthumb -31.4826 -39.7398
rfemur -51.5209 1.69401 -42.1555
rtibia -1.79723
rfoot -50.2515 -33.2137
rtoes 38.0818
lfemur -45.6418 13.03 31.7446
ltibia -0.83635
lfoot -33.2902 1.00782
ltoes 52.0857
330
root 9.13071 11.1847 11.2274 -33.1228 -2.01753 -177.646
lowerback 32.6883 0.160363 -1.41506
upperback 19.5553 0.471125 -2.24416
thorax 4.61651 -0.663981 -1.8001
lowerneck -4.03267 -1.6475 -3.4965
upperneck 26.4821 -1.48738 -0.953013
head 8.95364 -0.603751 0.228332
rclavicle 5.96354e-015 1.59028e-014
rhumerus 64.0051 -14.9541 -84.8277
rradius 115.578
rwrist 14.2178
rhand -43.9717 -85.8355
rfingers 7.12502
rthumb -16.794 -244.871
lclavicle 5.96354e-015 1.59028e-014
lhumerus 67.224 14.4249 70.6964
lradius 112.092
lwrist -9.82968
lhand -59.4748 -69.1576
lfingers 7.12502
lthumb -31.6517 -41.8824
rfemur -51.3617 1.45083 -43.0575
rtibia -2.17669
rfoot -50.2573 -34.8511
rtoes 36.364
lfemur -45.5729 12.6888 32.5729
ltibia -1.0416
lfoot -33.9412 1.22549
ltoes 52.188
